<svg xmlns="http://www.w3.org/2000/svg" width="50" height="50" viewBox="0 0 13.229 13.229"><path fill="#fff" d="M6.615 0A6.615 6.615 0 000 6.615a6.615 6.615 0 006.615 6.614 6.615 6.615 0 006.614-6.614A6.615 6.615 0 006.615 0zm0 1.058a5.556 5.556 0 015.556 5.557 5.556 5.556 0 01-5.556 5.556 5.556 5.556 0 01-5.557-5.556 5.556 5.556 0 015.557-5.557z"/><g><path fill="#fff" d="M6.257 8.64q-.323.168-.674.253-.351.085-.733.085-1.138 0-1.803-.634-.666-.638-.666-1.728 0-1.093.666-1.727.665-.638 1.803-.638.382 0 .733.085.351.086.674.254v.943q-.326-.223-.644-.327-.317-.104-.668-.104-.629 0-.989.403t-.36 1.111q0 .705.36 1.108.36.403.99.403.35 0 .667-.104.318-.104.644-.326zM10.848 8.64q-.324.168-.675.253-.35.085-.732.085-1.139 0-1.804-.634-.665-.638-.665-1.728 0-1.093.665-1.727.665-.638 1.804-.638.381 0 .732.085.351.086.675.254v.943q-.327-.223-.644-.327-.318-.104-.669-.104-.628 0-.988.403t-.36 1.111q0 .705.36 1.108.36.403.988.403.351 0 .669-.104.317-.104.644-.326z"/></g></svg>