<svg xmlns="http://www.w3.org/2000/svg" width="2400" height="850" viewBox="0 0 635 224.896"><g fill="#fff" font-weight="700" font-family="Aaargh" word-spacing="0" text-anchor="start"><g aria-label="PIRATEN" style="line-height:1.25;-inkscape-font-specification:'Open Sans';text-align:center" font-size="95.048" letter-spacing="9.256" stroke-width="3.55"><path d="M281.632 80.86q-.095.665-.095 1.14v.856q-1.14 10.93-10.17 18.059-7.889 6.083-18.344 6.083-1.806 0-4.372-.095-2.567-.095-5.893-.38v25.092h-9.695V55.387q7.984-.666 12.926-.95 4.943-.38 6.844-.38 5.703-.286 10.55 1.14 4.943 1.33 8.935 4.467 2.186 1.806 3.706 3.517 1.521 1.616 2.472 3.136h-.095q1.52 2.281 2.186 5.133.76 2.756.95 5.893 0 .95.095 1.14zm-9.885-.095q.095-1.521 0-2.186-.19-3.612-1.615-6.369-1.331-2.851-3.517-4.752-2.662-1.996-5.798-2.947-3.137-1.045-6.749-.855-2.47 0-5.132.19-2.566.095-6.178.38V82.38q-.19 1.046 0 1.996v12.452q4.562.38 7.413.57 2.852.095 3.897.095 5.893.285 11.501-4.372 2.471-1.901 3.897-4.562 1.426-2.662 1.996-5.798.095-.476.095-1.14.095-.761.19-1.046zM306.61 55.292v76.133h-9.79V55.292zM372.327 78.674q-.76 9.79-5.323 14.922-4.467 5.133-13.307 7.034 3.422 3.421 7.224 7.318t7.509 7.89q3.802 3.991 7.318 7.888 3.612 3.897 6.749 7.319H369.57q-7.223-7.889-14.447-15.208-7.129-7.318-14.542-14.257h-1.236q-.285-.095-.76-.095-.476-.095-1.426-.19v30.035h-9.695V55.767q5.703-.76 10.075-1.046 4.467-.285 7.604-.19 15.017.476 21.766 7.51 5.323 5.702 5.418 16.633zm-35.168 13.021q.76.095 1.52.095.761-.095 1.331 0h.19q.76-.19 1.616 0 4.562-.095 8.46-.665 3.991-.666 6.178-1.901 2.756-1.52 4.277-4.182 1.52-2.757 1.616-6.844 0-6.178-3.137-9.22-4.372-4.277-15.873-4.657-1.426-.095-2.851 0-1.426 0-3.327.19zM433.785 106.333h-24.047q-2.186 5.988-4.467 12.546-2.281 6.558-4.372 12.451h-10.266l26.709-75.943h8.364l27.279 75.943H442.72zm-3.517-9.79q-1.235-3.422-2.28-6.083-.951-2.757-1.997-5.418-.95-2.757-1.996-5.608-1.045-2.947-2.471-6.844-1.046 3.042-2.091 5.893-1.046 2.852-2.091 5.798-.95 2.852-2.091 5.893-1.046 2.947-2.186 6.369zM502.675 65.082h-18.344v66.248h-9.79V65.082h-18.344v-9.79h46.478zM528.27 85.327h30.985v9.695H528.27v26.708h30.89v9.6h-40.68V55.387h40.775v9.79H528.27zM629.136 55.197l-.095 76.038h-8.555L586.08 75.727v55.508h-9.695V55.197h8.554l34.503 55.603V55.197z" style="-inkscape-font-specification:'Aaargh Bold';text-align:start"/></g><g aria-label="RHEIN-ERFT-KREIS" style="line-height:1.25;-inkscape-font-specification:'Open Sans';text-align:center" font-size="25.4" letter-spacing="6.905" stroke-width="2.649"><path d="M249.264 154.181q-.273 3.507-1.907 5.346-1.6 1.838-4.766 2.52 1.225 1.225 2.587 2.621t2.69 2.826q1.362 1.43 2.621 2.826 1.294 1.396 2.418 2.621h-4.63q-2.588-2.825-5.176-5.447-2.553-2.622-5.209-5.107H237.45q-.103-.034-.273-.034-.17-.033-.51-.068v10.759h-3.473v-27.068q2.042-.272 3.609-.374 1.6-.102 2.723-.068 5.38.17 7.797 2.69 1.907 2.042 1.94 5.957zm-12.598 4.665q.273.033.545.033.272-.033.477 0h.068q.272-.068.579 0 1.634-.033 3.03-.238 1.43-.238 2.213-.68.987-.546 1.532-1.499.545-.987.579-2.451 0-2.213-1.124-3.303-1.566-1.532-5.686-1.668-.51-.034-1.021 0-.51 0-1.192.068zM277.282 145.874v27.17h-3.473v-13.006h-10.86v13.006h-3.474v-27.17h3.473v10.69h10.861v-10.69zM293.043 156.565h11.099v3.473h-11.1v9.567h11.066v3.439h-14.572V145.84h14.606v3.507h-11.1zM319.336 145.806v27.272h-3.506v-27.272zM351.298 145.772l-.034 27.238H348.2l-12.325-19.884v19.884h-3.473v-27.238h3.064l12.36 19.917v-19.917zM375.366 164.055h-9.942v-3.336h9.942zM391.702 156.565h11.1v3.473h-11.1v9.567h11.065v3.439h-14.572V145.84h14.606v3.507h-11.099zM429.61 154.181q-.272 3.507-1.907 5.346-1.6 1.838-4.766 2.52 1.225 1.225 2.587 2.621t2.69 2.826q1.362 1.43 2.622 2.826 1.293 1.396 2.417 2.621h-4.63q-2.588-2.825-5.176-5.447-2.553-2.622-5.209-5.107H417.796q-.103-.034-.273-.034-.17-.033-.51-.068v10.759h-3.473v-27.068q2.043-.272 3.609-.374 1.6-.102 2.723-.068 5.38.17 7.797 2.69 1.907 2.042 1.94 5.957zm-12.597 4.665q.272.033.544.033.273-.033.477 0h.068q.272-.068.579 0 1.634-.033 3.03-.238 1.43-.238 2.213-.68.987-.546 1.532-1.499.545-.987.579-2.451 0-2.213-1.124-3.303-1.566-1.532-5.685-1.668-.511-.034-1.022 0-.51 0-1.191.068zM444.923 156.565h11.099v3.473h-11.1v13.006h-3.506V145.84h14.606v3.507h-11.1zM480.621 149.313h-6.571v23.73h-3.507v-23.73h-6.571v-3.507h16.649zM502.563 164.055h-9.942v-3.336h9.942zM521.35 158.301q3.337 3.098 6.912 6.81 3.575 3.677 7.388 7.933h-4.63q-2.997-3.269-5.89-6.197-2.86-2.962-5.755-5.584v11.78h-3.472V145.84h3.472v9.567q2.656-2.383 5.38-4.8 2.724-2.418 5.38-4.767h5.242zM560.12 154.181q-.273 3.507-1.908 5.346-1.6 1.838-4.766 2.52 1.226 1.225 2.587 2.621 1.362 1.396 2.69 2.826 1.362 1.43 2.622 2.826 1.294 1.396 2.417 2.621h-4.63q-2.588-2.825-5.175-5.447-2.554-2.622-5.21-5.107H548.305q-.102-.034-.273-.034-.17-.033-.51-.068v10.759h-3.473v-27.068q2.043-.272 3.609-.374 1.6-.102 2.724-.068 5.38.17 7.796 2.69 1.907 2.042 1.941 5.957zm-12.598 4.665q.272.033.544.033.273-.033.477 0h.068q.273-.068.579 0 1.634-.033 3.03-.238 1.43-.238 2.213-.68.988-.546 1.532-1.499.545-.987.58-2.451 0-2.213-1.124-3.303-1.567-1.532-5.686-1.668-.511-.034-1.022 0-.51 0-1.191.068zM575.432 156.565h11.1v3.473h-11.1v9.567h11.065v3.439h-14.572V145.84h14.606v3.507h-11.1zM601.115 145.806v27.272h-3.507v-27.272zM626.976 171.954q-2.145 1.396-5.073 1.396-.579 0-1.055-.034-.443-.033-.886-.101-1.43-.307-2.723-.886-1.294-.612-2.418-1.498v-3.95q1.839 1.227 3.37 2.01 1.567.749 2.759.987l-.034-.034q.408.069.749.137.34.033.613.033 3.336 0 4.051-3.405l-.034.069q.034-.17.034-.307.034-.17.034-.272 0-1.226-1.464-2.69-.374-.374-1.294-1.09-.885-.714-2.315-1.77-1.872-1.362-2.894-2.145-1.021-.783-1.225-.953-2.248-2.145-2.248-4.767 0-.306.034-.646.035-.34.137-.75v.034q.68-3.166 2.928-4.664.885-.647 1.974-.92 1.09-.306 2.316-.306 1.021 0 2.11.238 2.077.409 4.325 2.077v4.222q-1.567-1.328-2.826-2.111-1.226-.783-2.145-.953-.375-.069-.75-.102-.34-.069-.714-.069-1.192 0-2.077.58h.034q-1.362.885-1.703 2.757l-.068.409v.34q0 .715.681 1.498.477.477 1.294 1.226.851.715 2.145 1.668 2.145 1.566 3.507 2.724 1.396 1.124 2.077 1.873 1.736 1.804 1.736 3.983 0 .443-.068.851-.034.409-.102.885-.51 3.099-2.792 4.46z" style="-inkscape-font-specification:'Aaargh Bold';text-align:start"/></g></g><path d="M216.986 113.68a105.833 105.833 0 0 1-105.2 105.83A105.833 105.833 0 0 1 5.328 114.948 105.833 105.833 0 0 1 109.251 7.863a105.833 105.833 0 0 1 107.705 103.28" fill="#fff"/><path d="M144.623 123.254c3.459 10.41 13.234 38.07-.688 81.646-24.784 7.951-45.214 6.75-63.614.172 49.256-24.812 62.866-73.379 64.302-81.818z" fill="#4cbcd0"/><path d="M140.619 97.158c9.863 4.881 36.479 17.437 57.772 57.953-11.772 23.124-27.008 36.727-44.653 45.109 16.965-52.298-8.108-96.106-13.119-103.062z" fill="#5666a4"/><path d="M120.584 80.907c10.482-3.368 38.335-12.9 82.003 1.276 7.806 24.732 6.452 45.062-.29 63.332-24.564-49.216-73.247-63.117-81.713-64.608z" fill="#1ea12d"/><path d="M94.578 82.967c5.188-9.673 18.566-35.796 59.863-55.81 22.875 12.384 36.09 27.942 43.994 45.743-52.016-18.4-96.727 5.282-103.857 10.067z" fill="#8fbd1f"/><path d="M77.984 103.802c-3.364-10.442-12.887-38.19 1.43-81.638 24.855-7.727 45.273-6.342 63.612.401-49.48 24.368-63.529 72.81-65.042 81.237z" fill="#4cbcd0"/><path d="M81.417 130.518c-9.82-4.964-36.33-17.743-57.278-58.437C36.106 49.057 51.457 35.583 69.172 27.35c-17.408 52.153 7.294 96.17 12.245 103.168z" fill="#5666a4"/><path d="M101.958 146.868c-10.458 3.442-38.244 13.166-82.01-.705-7.98-24.677-6.768-45.016-.156-63.332 24.91 49.044 73.69 62.605 82.166 64.037z" fill="#1ea12d"/><path d="M128.3 143.747c-4.993 9.774-17.848 36.155-58.739 56.98-23.117-11.93-36.64-27.224-44.897-44.866 52.373 17.37 96.604-7.19 103.637-12.114z" fill="#8fbd1f"/><path d="M183.724 113.68a72.571 72.25 0 0 1-72.136 72.248 72.571 72.25 0 0 1-73.001-71.383 72.571 72.25 0 0 1 71.262-73.104 72.571 72.25 0 0 1 73.854 70.507" fill="#ff8700"/><path d="M169.918 113.68a58.766 58.87 0 0 1-58.413 58.869 58.766 58.87 0 0 1-59.114-58.164 58.766 58.87 0 0 1 57.706-59.566 58.766 58.87 0 0 1 59.805 57.45" fill="#fff"/><path d="M88.638 163.924c-17.717-22.671 12.495-29.854 21.35-30.446 63.572-6.59 50.121-51.056 13.75-56.098-11.87-1.645-28.295-1.657-43.332 5.686 13.99-.764 31.62 9.522 30.869 22.211-.296 18.147-15.25 21.072-24.438 28.45-8.23 6.05-11.932 21.672 1.8 30.197z"/><path paint-order="fill markers stroke" d="M85.268 69.591h6.457v66.882h-6.457z"/></svg>