<svg xmlns="http://www.w3.org/2000/svg" xmlns:xlink="http://www.w3.org/1999/xlink" width="250" height="50" viewBox="0 0 66.146 13.229" version="1.1" id="svg8"><defs id="defs2"><linearGradient y2=".75" x2=".417" y1=".167" x1=".667" id="b"><stop id="stop3888" offset="0" stop-color="#37aee2"/><stop id="stop3890" offset="1" stop-color="#1e96c8"/></linearGradient><linearGradient y2="174.708" x2="146.527" y1="131.028" x1="123.641" id="w" gradientTransform="scale(1.0919 .91583)" gradientUnits="userSpaceOnUse"><stop id="stop3893" offset="0" stop-color="#eff7fc"/><stop id="stop3895" offset="1" stop-color="#fff"/></linearGradient><linearGradient xlink:href="#b" id="linearGradient3942" x1="160.008" y1="40.008" x2="100.008" y2="180" gradientUnits="userSpaceOnUse"/><clipPath id="clipPath4343" clipPathUnits="userSpaceOnUse"><path id="path4341" d="M0 1066.861h1280.244V0H0z"/></clipPath><clipPath id="clipPath4355" clipPathUnits="userSpaceOnUse"><path id="path4353" d="M0 1066.861h1280.244V0H0z"/></clipPath><style id="style3950"></style></defs><g id="layer1" transform="translate(0 -283.77)"><g id="g3976" transform="matrix(.26458 0 0 .26458 2.599 251.974)"><g data-name="Logo — FIXED" id="Logo_FIXED"><g id="g3990" transform="matrix(.125 0 0 .125 -9.821 120.179)"><g id="g4095" transform="matrix(.39063 0 0 -.39063 400 400)"><g id="g4097" transform="scale(.1)" fill-opacity="1" fill-rule="nonzero" stroke="none"><path d="M10240 5120c0 2827.7-2292.3 5120-5120 5120S0 7947.7 0 5120C0 2564.46 1872.31 446.301 4320 62.2V3640H3020v1480h1300v1128c0 1283.2 764.38 1992 1933.9 1992 560.17 0 1146.1-100 1146.1-100V6880h-645.62c-636.03 0-834.38-394.67-834.38-799.57V5120h1420l-227-1480H5920V62.2C8367.69 446.3 10240 2564.46 10240 5120" id="path4099" fill="#1877f2"/><path d="M7113 3640l227 1480H5920v960.43c0 404.9 198.35 799.57 834.38 799.57H7400v1260s-585.93 100-1146.1 100C5084.38 8240 4320 7531.2 4320 6248V5120H3020V3640h1300V62.2C4580.67 21.3 4847.84 0 5120 0c272.16 0 539.33 21.3 800 62.2V3640h1193" id="path4101" fill="#fff"/></g></g><g id="g4114"><path d="M200 0A200 200 0 000 200a200 200 0 00200 200 200 200 0 00200-200A200 200 0 00200 0z" id="rect3956" fill="#1da1f2" stroke-width="1"/><path id="path3959" d="M153.62 301.59c94.34 0 145.94-78.16 145.94-145.94 0-2.22 0-4.43-.15-6.63A104.36 104.36 0 00325 122.47a102.38 102.38 0 01-29.46 8.07 51.47 51.47 0 0022.55-28.37 102.79 102.79 0 01-32.57 12.45 51.34 51.34 0 00-87.41 46.78A145.62 145.62 0 0192.4 107.81a51.33 51.33 0 0015.88 68.47A50.91 50.91 0 0185 169.86v.65a51.31 51.31 0 0041.15 50.28 51.21 51.21 0 01-23.16.88 51.35 51.35 0 0047.92 35.62 102.92 102.92 0 01-63.7 22 104.41 104.41 0 01-12.21-.74 145.21 145.21 0 0078.62 23" fill="#fff"/></g><g transform="matrix(3.125 0 0 -3.125 800 400)" id="g4245"><g transform="scale(.1)" id="g4247" fill-opacity="1" fill-rule="nonzero" stroke="none"><path id="path4249" d="M1280 640C1280 286.539 993.461 0 640 0S0 286.539 0 640s286.539 640 640 640 640-286.539 640-640" fill="#ef381f"/><path id="path4251" d="M786.668 506.656c-36.762 0-66.668 29.907-66.668 66.66 0 36.77 29.906 66.684 66.668 66.684 36.758 0 66.664-29.914 66.664-66.684 0-36.753-29.906-66.66-66.664-66.66zm11.738-109.488c-45.504-45.438-132.691-48.973-158.328-48.973-25.644 0-112.84 3.535-158.285 48.981-6.746 6.746-6.746 17.687.004 24.433 6.742 6.743 17.683 6.746 24.433-.004 28.676-28.679 90.028-38.855 133.848-38.855 43.82 0 105.184 10.18 133.91 38.867 6.758 6.738 17.696 6.727 24.434-.015 6.742-6.754 6.734-17.692-.016-24.434zM426.668 573.324c0 36.766 29.918 66.676 66.695 66.676C530.105 640 560 610.09 560 573.324c0-36.75-29.895-66.652-66.637-66.652-36.777 0-66.695 29.902-66.695 66.652zM1066.56 640c0 51.547-41.78 93.332-93.33 93.332-25.16 0-47.949-10.004-64.734-26.187-63.797 46.039-151.695 75.769-249.601 79.187l42.519 200.027 138.906-29.527c1.688-35.316 30.614-63.5 66.348-63.5 36.816 0 66.664 29.848 66.664 66.668 0 36.82-29.848 66.67-66.664 66.67-26.191 0-48.621-15.24-59.523-37.213l-155.106 32.973c-4.316.94-8.836.09-12.539-2.32a16.682 16.682 0 01-7.227-10.52l-47.48-223.195c-99.34-2.758-188.648-32.532-253.266-79.082-16.769 16.085-39.48 26.019-64.547 26.019-51.546 0-93.335-41.785-93.335-93.332 0-37.926 22.66-70.5 55.144-85.102-1.437-9.277-2.226-18.687-2.226-28.23 0-143.594 167.148-259.996 373.332-259.996 206.187 0 373.335 116.402 373.335 259.996 0 9.477-.77 18.828-2.19 28.047 32.69 14.515 55.52 47.207 55.52 85.285" fill="#fff"/></g></g><g transform="matrix(.5249 0 0 -.5249 1064.002 479.994)" id="g4335"><g id="g4337"><g clip-path="url(#clipPath4343)" id="g4339"><g transform="translate(1260.384)" id="g4345"><path d="M227.334 7.729a25 25 0 00-25 25 25 25 0 0025 25 25 25 0 0025-25 25 25 0 00-25-25z" id="path4347" transform="matrix(15.24087 0 0 -15.24087 -4085.04 1032.23)" fill="#25d366" fill-opacity="1" fill-rule="nonzero" stroke="none" stroke-width=".066"/></g></g></g><g id="g4349"><g clip-path="url(#clipPath4355)" id="g4351"><g transform="translate(736.18 489.234)" id="g4357"><path id="path4359" d="M0 0c-5.211 2.608-30.831 15.213-35.608 16.954-4.776 1.739-8.25 2.607-11.724-2.608C-50.806 9.13-60.793-2.609-63.833-6.087c-3.039-3.477-6.079-3.914-11.29-1.304-5.211 2.608-22.002 8.11-41.906 25.865-15.491 13.818-25.95 30.882-28.989 36.099-3.04 5.217-.325 8.037 2.284 10.635 2.345 2.335 5.212 6.087 7.817 9.13 2.606 3.042 3.474 5.217 5.211 8.693 1.737 3.479.869 6.521-.435 9.129-1.302 2.608-11.724 28.259-16.066 38.694-4.23 10.16-8.526 8.784-11.725 8.945-3.036.151-6.514.183-9.987.183-3.474 0-9.12-1.304-13.897-6.52-4.776-5.217-18.238-17.825-18.238-43.473 0-25.651 18.672-50.429 21.278-53.907 2.606-3.479 36.745-56.113 89.021-78.685 12.432-5.37 22.139-8.576 29.707-10.977 12.483-3.967 23.843-3.407 32.822-2.065C-18.214-54.15 2.605-43.04 6.948-30.868 11.29-18.693 11.29-8.26 9.987-6.087 8.685-3.913 5.211-2.609 0 0m-95.082-129.825h-.07c-31.105.012-61.613 8.369-88.227 24.162l-6.33 3.757-65.606-17.21 17.511 63.966-4.121 6.559c-17.352 27.598-26.517 59.496-26.503 92.25.038 95.573 77.8 173.329 173.415 173.329 46.3-.016 89.822-18.07 122.551-50.836 32.727-32.764 50.74-76.316 50.722-122.633C78.221-52.062.46-129.825-95.082-129.825M52.446 191.049c-39.375 39.421-91.739 61.14-147.53 61.163-114.953 0-208.511-93.552-208.557-208.54-.015-36.758 9.588-72.635 27.839-104.264l-29.587-108.071 110.558 29.001c30.462-16.615 64.759-25.373 99.664-25.384H-95.081c114.941 0 208.507 93.561 208.554 208.551.021 55.726-21.652 108.124-61.027 147.544" fill="#fff" fill-opacity="1" fill-rule="evenodd" stroke="none"/></g></g></g></g><g id="g3924" transform="matrix(8 0 0 8 418.571 -765.714)"><g id="g3934"><g id="g3940" transform="matrix(.20833 0 0 .20833 147.679 95.714)"><circle id="circle3900" r="120" cy="120" cx="120" fill="url(#linearGradient3942)"/><path id="path3902" d="M98 175c-3.888 0-3.227-1.468-4.568-5.17L82 132.207 170 80" fill="#c8daea"/><path id="path3904" d="M98 175c3 0 4.325-1.372 6-3l16-15.558-19.958-12.035" fill="#a9c9dd"/><path id="path3906" d="M100.04 144.41l48.36 35.729c5.519 3.045 9.501 1.468 10.876-5.123l19.685-92.763c2.015-8.08-3.08-11.746-8.36-9.349l-115.59 44.571c-7.89 3.165-7.843 7.567-1.438 9.528l29.663 9.259 68.673-43.325c3.242-1.966 6.218-.91 3.776 1.258" fill="url(#w)"/></g></g></g></g><path id="rect3961" fill="none" d="M0 0h400v400H0z"/></g></g></g></svg>