<svg xmlns="http://www.w3.org/2000/svg" xmlns:xlink="http://www.w3.org/1999/xlink" width="300" height="50" viewBox="0 0 79.375 13.229" version="1.1" id="svg8"><defs id="defs2"><linearGradient y2=".75" x2=".417" y1=".167" x1=".667" id="b"><stop id="stop3888" offset="0" stop-color="#37aee2"/><stop id="stop3890" offset="1" stop-color="#1e96c8"/></linearGradient><linearGradient y2="174.708" x2="146.527" y1="131.028" x1="123.641" id="w" gradientTransform="matrix(1.8198 0 0 1.52636 2000.013 -.02)" gradientUnits="userSpaceOnUse"><stop id="stop3893" offset="0" stop-color="#eff7fc"/><stop id="stop3895" offset="1" stop-color="#fff"/></linearGradient><linearGradient xlink:href="#b" id="linearGradient3942" x1="160.008" y1="40.008" x2="100.008" y2="180" gradientUnits="userSpaceOnUse"/><linearGradient xlink:href="#b" id="linearGradient5594" x1="2326.824" y1="-120.555" x2="2279.13" y2="-84.634" gradientUnits="userSpaceOnUse" gradientTransform="matrix(2.04995 0 0 3.75528 -2308.15 157.774)"/><linearGradient xlink:href="#b" id="linearGradient5617" gradientUnits="userSpaceOnUse" gradientTransform="matrix(2.00152 0 0 4.55517 -2400.02 660.814)" x1="2346.08" y1="-132.306" x2="2280.2" y2="-77.348"/><clipPath id="clipPath4343" clipPathUnits="userSpaceOnUse"><path id="path4341" d="M0 1066.861h1280.244V0H0z"/></clipPath><clipPath id="clipPath4355" clipPathUnits="userSpaceOnUse"><path id="path4353" d="M0 1066.861h1280.244V0H0z"/></clipPath><style id="style3950"/></defs><g id="layer1" transform="translate(0 -283.77)"><g id="g3976" transform="translate(2.599 251.974) scale(.26458)"><g id="g5549"><g id="Logo_FIXED" data-name="Logo — FIXED"><g transform="matrix(.125 0 0 .125 -9.821 120.179)" id="g3990"><g id="g5651" fill-opacity="1"><path id="rect5578" fill="#1877f2" stroke-width="16.777" d="M399.989-.032h400.006v400.006H399.989z"/><path d="M677.844 257.785l8.868-57.814h-55.47v-37.517c0-15.816 7.748-31.233 32.593-31.233h25.22V82s-22.888-3.906-44.77-3.906c-45.685 0-75.544 27.688-75.544 77.813v44.063H517.96v57.814h50.782v139.76a201.5 201.5 0 0031.25 2.429 201.5 201.5 0 0031.251-2.43v-139.76h46.602" id="path4101" fill="#fff" fill-rule="nonzero" stroke="none" stroke-width=".039"/></g><g id="g5614"><path id="rect5576" fill="#1da1f2" fill-opacity="1" stroke-width="14.05" d="M-.017-.032h400.006v400.006H-.017z"/><path d="M153.62 301.59c94.34 0 145.94-78.16 145.94-145.94 0-2.22 0-4.43-.15-6.63A104.36 104.36 0 00325 122.47a102.38 102.38 0 01-29.46 8.07 51.47 51.47 0 0022.55-28.37 102.79 102.79 0 01-32.57 12.45 51.34 51.34 0 00-87.41 46.78A145.62 145.62 0 0192.4 107.81a51.33 51.33 0 0015.88 68.47A50.91 50.91 0 0185 169.86v.65a51.31 51.31 0 0041.15 50.28 51.21 51.21 0 01-23.16.88 51.35 51.35 0 0047.92 35.62 102.92 102.92 0 01-63.7 22 104.41 104.41 0 01-12.21-.74 145.21 145.21 0 0078.62 23" id="path3959" fill="#fff"/></g><path id="rect5582" fill="#3088d4" fill-opacity="1" stroke-width="26.74" d="M1200.001-.032h400.006v400.006h-400.006z"/><g id="g5655" fill-opacity="1"><path id="rect5580" fill="#ef381f" stroke-width="23.228" d="M799.995-.032h400.006v400.006H799.995z"/><path id="path4251" d="M1045.834 241.67c-11.488 0-20.834-9.346-20.834-20.831 0-11.49 9.346-20.839 20.834-20.839 11.487 0 20.832 9.348 20.832 20.839 0 11.485-9.345 20.831-20.832 20.831zm3.668 34.215c-14.22 14.2-41.466 15.304-49.478 15.304-8.013 0-35.262-1.105-49.464-15.307a5.399 5.399 0 117.637-7.634c8.96 8.962 28.133 12.142 41.827 12.142 13.694 0 32.87-3.18 41.847-12.146a5.403 5.403 0 017.636.005 5.395 5.395 0 01-.01 7.636zm-116.168-55.049c0-11.49 9.35-20.836 20.842-20.836 11.482 0 20.824 9.347 20.824 20.836 0 11.485-9.342 20.829-20.824 20.829-11.493 0-20.842-9.344-20.842-20.829zM1133.3 200c0-16.108-13.056-29.166-29.166-29.166-7.862 0-14.984 3.126-20.229 8.183-19.937-14.387-47.405-23.678-78-24.746l13.287-62.508 43.408 9.227c.527 11.036 9.567 19.844 20.734 19.844 11.505 0 20.832-9.328 20.832-20.834s-9.327-20.834-20.832-20.834c-8.185 0-15.194 4.762-18.601 11.629l-48.47-10.304a5.173 5.173 0 00-3.92.725 5.213 5.213 0 00-2.258 3.287l-14.837 69.749c-31.044.861-58.953 10.166-79.146 24.713-5.24-5.027-12.337-8.131-20.17-8.131-16.109 0-29.168 13.058-29.168 29.166 0 11.852 7.081 22.031 17.233 26.594-.45 2.9-.696 5.84-.696 8.822 0 44.873 52.234 81.249 116.666 81.249 64.434 0 116.667-36.376 116.667-81.249 0-2.961-.24-5.884-.684-8.764 10.216-4.536 17.35-14.753 17.35-26.652" fill="#fff" fill-rule="nonzero" stroke="none" stroke-width=".313"/></g><g id="g5662"><path id="rect5584" fill="#25d366" fill-opacity="1" stroke-width="43.362" d="M1600.007-.032h400.006v400.006h-400.006z"/><g transform="matrix(.5249 0 0 -.5249 1464.01 479.994)" id="g4349"><g id="g4351" clip-path="url(#clipPath4355)"><g id="g4357" transform="translate(736.18 489.234)"><path d="M0 0c-5.211 2.608-30.831 15.213-35.608 16.954-4.776 1.739-8.25 2.607-11.724-2.608C-50.806 9.13-60.793-2.609-63.833-6.087c-3.039-3.477-6.079-3.914-11.29-1.304-5.211 2.608-22.002 8.11-41.906 25.865-15.491 13.818-25.95 30.882-28.989 36.099-3.04 5.217-.325 8.037 2.284 10.635 2.345 2.335 5.212 6.087 7.817 9.13 2.606 3.042 3.474 5.217 5.211 8.693 1.737 3.479.869 6.521-.435 9.129-1.302 2.608-11.724 28.259-16.066 38.694-4.23 10.16-8.526 8.784-11.725 8.945-3.036.151-6.514.183-9.987.183-3.474 0-9.12-1.304-13.897-6.52-4.776-5.217-18.238-17.825-18.238-43.473 0-25.651 18.672-50.429 21.278-53.907 2.606-3.479 36.745-56.113 89.021-78.685 12.432-5.37 22.139-8.576 29.707-10.977 12.483-3.967 23.843-3.407 32.822-2.065C-18.214-54.15 2.605-43.04 6.948-30.868 11.29-18.693 11.29-8.26 9.987-6.087 8.685-3.913 5.211-2.609 0 0m-95.082-129.825h-.07c-31.105.012-61.613 8.369-88.227 24.162l-6.33 3.757-65.606-17.21 17.511 63.966-4.121 6.559c-17.352 27.598-26.517 59.496-26.503 92.25.038 95.573 77.8 173.329 173.415 173.329 46.3-.016 89.822-18.07 122.551-50.836 32.727-32.764 50.74-76.316 50.722-122.633C78.221-52.062.46-129.825-95.082-129.825M52.446 191.049c-39.375 39.421-91.739 61.14-147.53 61.163-114.953 0-208.511-93.552-208.557-208.54-.015-36.758 9.588-72.635 27.839-104.264l-29.587-108.071 110.558 29.001c30.462-16.615 64.759-25.373 99.664-25.384h.086c114.941 0 208.507 93.561 208.554 208.551.021 55.726-21.652 108.124-61.027 147.544" id="path4359" fill="#fff" fill-opacity="1" fill-rule="evenodd" stroke="none"/></g></g></g></g><g id="g5672"><path id="rect5586" fill="url(#linearGradient5617)" fill-opacity="1" stroke-width="24.156" d="M2000.013-.032h400.006v400.006h-400.006z"/><path d="M2163.344 291.642c-6.48 0-5.378-2.446-7.613-8.616l-19.053-62.704 146.664-87.01" id="path3902" fill="#c8daea" stroke-width="1.667"/><path d="M2163.344 291.642c5 0 7.208-2.286 10-5l26.666-25.93-33.263-20.057" id="path3904" fill="#a9c9dd" stroke-width="1.667"/><path d="M2166.744 240.66l80.599 59.547c9.198 5.075 15.834 2.447 18.126-8.538l32.808-154.602c3.358-13.467-5.133-19.577-13.933-15.582l-192.647 74.284c-13.15 5.275-13.072 12.611-2.397 15.88l49.438 15.431 114.453-72.207c5.403-3.277 10.363-1.517 6.293 2.097" id="path3906" fill="url(#w)" stroke-width="1.667"/></g><g id="g5553" transform="matrix(1.83018 0 0 1.83018 1177.892 -745.032)"><g id="g5630" transform="translate(56.123 446.405) scale(.6029)" fill-opacity="1"><path d="M211.807 139.088c-3.18 16.366-28.492 34.277-57.562 37.748-15.159 1.809-30.084 3.471-45.999 2.741-26.027-1.192-46.565-6.212-46.565-6.212 0 2.534.156 4.946.469 7.202 3.384 25.687 25.47 27.225 46.391 27.943 21.116.723 39.919-5.206 39.919-5.206l.867 19.09s-14.77 7.931-41.08 9.39c-14.51.797-32.525-.365-53.507-5.919C9.232 213.82 1.406 165.311.209 116.091c-.365-14.613-.14-28.393-.14-39.918 0-50.33 32.976-65.083 32.976-65.083C49.672 3.454 78.204.242 107.865 0h.729c29.66.242 58.21 3.454 74.837 11.09 0 0 32.975 14.752 32.975 65.082 0 0 .414 37.134-4.599 62.916" id="path4568" fill="#fff"/><path d="M177.51 80.077v60.941h-24.144v-59.15c0-12.469-5.246-18.797-15.74-18.797-11.602 0-17.417 7.507-17.417 22.352V117.8H96.207V85.423c0-14.845-5.816-22.352-17.418-22.352-10.494 0-15.74 6.328-15.74 18.797v59.15H38.905V80.077c0-12.455 3.171-22.352 9.541-29.675 6.569-7.322 15.171-11.076 25.85-11.076 12.355 0 21.711 4.748 27.898 14.247l6.013 10.082 6.015-10.082c6.185-9.498 15.542-14.247 27.898-14.247 10.677 0 19.28 3.753 25.85 11.076 6.369 7.322 9.54 17.22 9.54 29.675" id="path4570" fill="#3088d4"/></g></g></g><path d="M0 0h400v400H0z" id="rect3961" fill="none"/></g></g></g></g></svg>