<svg xmlns="http://www.w3.org/2000/svg" width="2600" height="900" viewBox="0 0 687.917 238.125"><path d="M237.932 120.305a112.448 112.448 0 0 1-111.774 112.446A112.448 112.448 0 0 1 13.045 121.653 112.448 112.448 0 0 1 123.464 7.875 112.448 112.448 0 0 1 237.9 117.611" fill="#fff"/><path d="M162.092 130.777c3.784 11.387 14.475 41.64-.752 89.301-27.108 8.697-49.453 7.383-69.577.187 53.873-27.138 68.758-80.257 70.33-89.488z" fill="#4cbcd0"/><path d="M157.713 102.235c10.788 5.34 39.899 19.072 63.188 63.387-12.875 25.291-29.54 40.169-48.839 49.337 18.556-57.2-8.868-105.116-14.349-112.724z" fill="#5666a4"/><path d="M135.8 84.46c11.464-3.684 41.93-14.108 89.69 1.396 8.539 27.05 7.057 49.286-.316 69.27-26.868-53.83-80.114-69.035-89.374-70.666z" fill="#1ea12d"/><path d="M107.356 86.714c5.674-10.58 20.306-39.152 65.475-61.043 25.02 13.546 39.474 30.561 48.119 50.032-56.893-20.124-105.796 5.777-113.594 11.01z" fill="#8fbd1f"/><path d="M89.206 109.501c-3.68-11.42-14.096-41.769 1.563-89.29 27.186-8.453 49.518-6.938 69.577.438-54.118 26.653-69.485 79.636-71.14 88.852z" fill="#4cbcd0"/><path d="M92.961 138.723c-10.742-5.43-39.735-19.407-62.648-63.915 13.089-25.183 29.88-39.92 49.255-48.926-19.04 57.043 7.977 105.187 13.393 112.84z" fill="#5666a4"/><path d="M115.428 156.606c-11.439 3.763-41.83 14.4-89.699-.772-8.728-26.99-7.402-49.236-.17-69.27 27.245 53.643 80.597 68.476 89.869 70.042z" fill="#1ea12d"/><path d="M144.24 153.191c-5.462 10.69-19.523 39.546-64.246 62.323-25.285-13.05-40.075-29.776-49.106-49.073 57.282 18.998 105.66-7.863 113.352-13.25z" fill="#8fbd1f"/><path d="M204.86 120.305a79.375 79.023 0 0 1-78.9 79.022 79.375 79.023 0 0 1-79.845-78.075 79.375 79.023 0 0 1 77.943-79.957 79.375 79.023 0 0 1 80.779 77.117" fill="#ff8700"/><path d="M189.76 120.305a64.275 64.39 0 0 1-63.89 64.388 64.275 64.39 0 0 1-64.656-63.616 64.275 64.39 0 0 1 63.115-65.15 64.275 64.39 0 0 1 65.412 62.835" fill="#fff"/><path d="M100.858 175.26c-19.378-24.796 13.668-32.652 23.353-33.3 69.532-7.208 54.82-55.842 15.038-61.357-12.983-1.8-30.947-1.813-47.394 6.22 15.301-.836 34.584 10.414 33.763 24.293-.324 19.847-16.68 23.047-26.73 31.116-9 6.618-13.05 23.704 1.97 33.028z"/><path paint-order="fill markers stroke" d="M97.173 72.084h7.063v73.152h-7.063z"/><g font-weight="700" font-family="Aaargh" word-spacing="0" text-anchor="start"><g aria-label="PIRATEN" style="line-height:1.25;-inkscape-font-specification:'Open Sans';text-align:center" font-size="95.048" letter-spacing="9.256" stroke-width="3.55"><path d="M311.346 87.486q-.095.665-.095 1.14v.856q-1.14 10.93-10.17 18.059-7.889 6.083-18.344 6.083-1.806 0-4.372-.095-2.567-.095-5.893-.38v25.092h-9.695V62.013q7.984-.666 12.926-.95 4.943-.38 6.844-.38 5.703-.286 10.55 1.14 4.943 1.33 8.935 4.467 2.186 1.806 3.707 3.517 1.52 1.616 2.47 3.136h-.094q1.52 2.281 2.186 5.133.76 2.756.95 5.893 0 .95.095 1.14zm-9.885-.095q.096-1.521 0-2.186-.19-3.612-1.615-6.369-1.331-2.851-3.517-4.752-2.661-1.996-5.798-2.947-3.137-1.045-6.748-.855-2.472 0-5.133.19-2.566.095-6.178.38v18.154q-.19 1.046 0 1.996v12.452q4.562.38 7.414.57 2.851.095 3.897.095 5.892.285 11.5-4.372 2.472-1.901 3.897-4.562 1.426-2.662 1.996-5.798.095-.476.095-1.14.095-.761.19-1.046zM336.325 61.918v76.133h-9.79V61.918zM402.04 85.3q-.76 9.79-5.322 14.922-4.467 5.133-13.307 7.034 3.422 3.421 7.224 7.318t7.509 7.89q3.802 3.991 7.318 7.888 3.612 3.897 6.749 7.32h-12.927q-7.223-7.89-14.447-15.209-7.129-7.318-14.542-14.257h-1.236q-.285-.095-.76-.095-.476-.095-1.426-.19v30.035h-9.695V62.393q5.703-.76 10.075-1.046 4.467-.285 7.604-.19 15.018.476 21.766 7.51 5.323 5.702 5.418 16.633zM366.874 98.32q.76.095 1.52.095.761-.095 1.331 0h.19q.76-.19 1.616 0 4.563-.095 8.46-.665 3.992-.665 6.178-1.901 2.756-1.52 4.277-4.182 1.52-2.757 1.616-6.844 0-6.178-3.137-9.22-4.372-4.277-15.873-4.657-1.426-.095-2.851 0-1.426 0-3.327.19zM463.5 112.959h-24.048q-2.186 5.988-4.467 12.546-2.281 6.558-4.372 12.451h-10.266l26.709-75.943h8.364l27.279 75.943h-10.265zm-3.517-9.79q-1.236-3.422-2.282-6.083-.95-2.757-1.996-5.418-.95-2.757-1.996-5.608-1.045-2.947-2.47-6.843-1.046 3.041-2.092 5.892-1.045 2.852-2.091 5.798-.95 2.852-2.091 5.893-1.046 2.947-2.186 6.369zM532.39 71.708h-18.345v66.248h-9.79V71.708h-18.344v-9.79h46.478zM557.984 91.953h30.986v9.695h-30.986v26.708h30.89v9.6h-40.68V62.013h40.776v9.79h-30.986zM658.85 61.823l-.095 76.038H650.2l-34.407-55.508v55.508h-9.695V61.823h8.555l34.502 55.603V61.823z" style="-inkscape-font-specification:'Aaargh Bold';text-align:start"/></g><g aria-label="RHEIN-ERFT-KREIS" style="line-height:1.25;-inkscape-font-specification:'Open Sans';text-align:center" font-size="25.4" letter-spacing="6.905" stroke-width="2.649"><path d="M278.978 160.808q-.273 3.506-1.907 5.345-1.6 1.838-4.766 2.52 1.225 1.225 2.587 2.621t2.69 2.826q1.362 1.43 2.622 2.826 1.293 1.396 2.417 2.621h-4.63q-2.588-2.825-5.176-5.447-2.553-2.622-5.209-5.107H267.164q-.103-.034-.273-.034-.17-.033-.51-.068v10.759h-3.473v-27.068q2.042-.272 3.609-.374 1.6-.102 2.723-.068 5.38.17 7.797 2.69 1.907 2.042 1.94 5.958zm-12.598 4.664q.273.033.545.033.273-.033.477 0h.068q.272-.068.579 0 1.634-.033 3.03-.238 1.43-.238 2.213-.68.987-.546 1.532-1.499.545-.987.579-2.451 0-2.213-1.124-3.303-1.566-1.532-5.685-1.668-.511-.034-1.022 0-.51 0-1.192.068zM306.996 152.5v27.17h-3.473v-13.006h-10.86v13.006h-3.474V152.5h3.473v10.69h10.861V152.5zM322.757 163.19h11.099v3.474h-11.1v9.567h11.066v3.439H319.25v-27.204h14.606v3.507h-11.1zM349.05 152.432v27.272h-3.506v-27.272zM381.012 152.398l-.034 27.238h-3.064l-12.325-19.884v19.884h-3.473v-27.238h3.064l12.36 19.917v-19.917zM405.08 170.681h-9.942v-3.336h9.942zM421.416 163.19h11.1v3.474h-11.1v9.567h11.065v3.439H417.91v-27.204h14.606v3.507h-11.099zM459.324 160.808q-.272 3.506-1.907 5.345-1.6 1.838-4.766 2.52 1.225 1.225 2.587 2.621t2.69 2.826q1.362 1.43 2.622 2.826 1.293 1.396 2.417 2.621h-4.63q-2.588-2.825-5.176-5.447-2.553-2.622-5.209-5.107H447.51q-.102-.034-.273-.034-.17-.033-.51-.068v10.759h-3.473v-27.068q2.043-.272 3.609-.374 1.6-.102 2.724-.068 5.379.17 7.796 2.69 1.907 2.042 1.941 5.958zm-12.597 4.664q.272.033.544.033.273-.033.477 0h.068q.272-.068.579 0 1.634-.033 3.03-.238 1.43-.238 2.213-.68.988-.546 1.532-1.499.545-.987.58-2.451 0-2.213-1.124-3.303-1.567-1.532-5.686-1.668-.511-.034-1.022 0-.51 0-1.191.068zM474.637 163.19h11.1v3.474h-11.1v13.006h-3.507v-27.204h14.606v3.507h-11.1zM510.335 155.939h-6.571v23.73h-3.507v-23.73h-6.57v-3.507h16.648zM532.277 170.681h-9.942v-3.336h9.942zM551.064 164.927q3.337 3.099 6.912 6.81 3.575 3.677 7.388 7.933h-4.63q-2.997-3.269-5.89-6.197-2.86-2.962-5.755-5.584v11.78h-3.472v-27.203h3.472v9.567q2.656-2.383 5.38-4.8 2.724-2.418 5.38-4.767h5.243zM589.833 160.808q-.272 3.506-1.906 5.345-1.6 1.838-4.767 2.52 1.226 1.225 2.588 2.621 1.361 1.396 2.69 2.826 1.361 1.43 2.62 2.826 1.295 1.396 2.418 2.621h-4.63q-2.588-2.825-5.175-5.447-2.554-2.622-5.21-5.107H578.02q-.102-.034-.273-.034-.17-.033-.51-.068v10.759h-3.473v-27.068q2.043-.272 3.609-.374 1.6-.102 2.724-.068 5.38.17 7.796 2.69 1.907 2.042 1.941 5.958zm-12.597 4.664q.272.033.545.033.272-.033.476 0h.068q.273-.068.58 0 1.633-.033 3.03-.238 1.43-.238 2.212-.68.988-.546 1.532-1.499.545-.987.58-2.451 0-2.213-1.124-3.303-1.566-1.532-5.686-1.668-.51-.034-1.022 0-.51 0-1.191.068zM605.146 163.19h11.1v3.474h-11.1v9.567h11.065v3.439H601.64v-27.204h14.606v3.507h-11.1zM630.829 152.432v27.272h-3.507v-27.272zM656.69 178.58q-2.145 1.396-5.073 1.396-.579 0-1.055-.033-.443-.034-.886-.102-1.43-.307-2.723-.886-1.294-.612-2.418-1.498v-3.95q1.839 1.227 3.371 2.01 1.566.749 2.758.987l-.034-.033q.408.068.749.136.34.033.613.033 3.336 0 4.051-3.404l-.034.068q.034-.17.034-.307.034-.17.034-.272 0-1.226-1.464-2.69-.374-.374-1.293-1.09-.886-.714-2.316-1.77-1.872-1.361-2.894-2.145-1.021-.783-1.225-.953-2.247-2.145-2.247-4.766 0-.307.034-.647t.136-.75v.034q.68-3.166 2.928-4.664.885-.647 1.975-.92 1.089-.306 2.315-.306 1.021 0 2.11.238 2.078.409 4.325 2.077v4.222q-1.567-1.328-2.826-2.11-1.226-.784-2.145-.954-.375-.069-.75-.102-.34-.068-.714-.068-1.192 0-2.077.578h.034q-1.362.886-1.702 2.758l-.069.409v.34q0 .715.681 1.498.477.477 1.294 1.226.851.715 2.145 1.668 2.145 1.566 3.507 2.724 1.396 1.124 2.077 1.873 1.736 1.804 1.736 3.983 0 .443-.068.851-.034.409-.102.886-.51 3.098-2.792 4.46z" style="-inkscape-font-specification:'Aaargh Bold';text-align:start"/></g></g></svg>